<?xml version="1.0" encoding="UTF-8"?>
<svg width="200" height="200" viewBox="0 0 200 200" xmlns="http://www.w3.org/2000/svg">
  <!-- Circle background -->
  <circle cx="100" cy="100" r="90" fill="#4a6fa5" />
  <circle cx="100" cy="100" r="80" fill="#ffffff" />
  <circle cx="100" cy="100" r="70" fill="#f8f9fa" />
  
  <!-- Clock ticks -->
  <g stroke="#4a6fa5" stroke-width="2">
    <!-- Hours -->
    <line x1="100" y1="40" x2="100" y2="50" />
    <line x1="160" y1="100" x2="150" y2="100" />
    <line x1="100" y1="160" x2="100" y2="150" />
    <line x1="40" y1="100" x2="50" y2="100" />
    
    <!-- Diagonals -->
    <line x1="142" y1="58" x2="135" y2="65" />
    <line x1="142" y1="142" x2="135" y2="135" />
    <line x1="58" y1="142" x2="65" y2="135" />
    <line x1="58" y1="58" x2="65" y2="65" />
  </g>
  
  <!-- Clock hands -->
  <g stroke-linecap="round">
    <!-- Hour hand -->
    <line x1="100" y1="100" x2="80" y2="70" stroke="#4a6fa5" stroke-width="4" />
    
    <!-- Minute hand -->
    <line x1="100" y1="100" x2="130" y2="120" stroke="#ff6b6b" stroke-width="3" />
    
    <!-- Center dot -->
    <circle cx="100" cy="100" r="5" fill="#4a6fa5" />
  </g>
  
  <!-- Schedule segments -->
  <path d="M100,30 A70,70 0 0,1 160,70 L100,100 Z" fill="#ff9f43" opacity="0.8" />
  <path d="M160,70 A70,70 0 0,1 140,150 L100,100 Z" fill="#1dd1a1" opacity="0.8" />
  <path d="M140,150 A70,70 0 0,1 60,150 L100,100 Z" fill="#5f27cd" opacity="0.8" />
</svg>
