<?xml version="1.0" encoding="UTF-8"?>
<svg width="100" height="100" viewBox="0 0 100 100" xmlns="http://www.w3.org/2000/svg">
  <g fill="none" stroke="#001989" stroke-width="3" stroke-linecap="round" stroke-linejoin="round">
    <!-- 달 -->
    <path d="M30,30 C20,45 25,70 45,75 C35,75 25,65 20,55 C15,45 20,35 30,30 Z" />
    
    <!-- 구름 -->
    <path d="M45,75 C45,65 55,60 65,65 C65,55 75,55 80,60 C85,55 95,60 95,70 C95,80 85,85 75,80 C70,85 55,85 50,80 C45,85 35,80 45,75 Z" />
    
    <!-- 별 -->
    <path d="M60,25 L62,30 L67,30 L63,33 L65,38 L60,35 L55,38 L57,33 L53,30 L58,30 Z" />
    <path d="M75,35 L77,40 L82,40 L78,43 L80,48 L75,45 L70,48 L72,43 L68,40 L73,40 Z" />
    <path d="M85,20 L87,25 L92,25 L88,28 L90,33 L85,30 L80,33 L82,28 L78,25 L83,25 Z" />
  </g>
</svg>
